<?xml version="1.0" standalone="no"?>
<!DOCTYPE svg PUBLIC "-//W3C//DTD SVG 20010904//EN"
 "http://www.w3.org/TR/2001/REC-SVG-20010904/DTD/svg10.dtd">
<svg xmlns="http://www.w3.org/2000/svg"
 width="600.000000pt" height="600.000000pt" viewBox="0 0 600.000000 600.000000"
 preserveAspectRatio="xMidYMid meet">
<g transform="translate(0.000000,600.000000) scale(0.100000,-0.100000)"
fill="#7D64FF" stroke="none">
<path d="M4745 5809 c-10 -18 -21 -37 -26 -43 -5 -6 -48 -72 -95 -146 -101
-158 -124 -194 -228 -355 -43 -66 -102 -158 -132 -205 -29 -47 -58 -92 -64
-100 -36 -54 -162 -250 -176 -275 -9 -16 -54 -86 -99 -155 -44 -69 -94 -146
-111 -172 -16 -26 -71 -111 -122 -190 -51 -79 -109 -169 -127 -201 -19 -31
-39 -63 -45 -70 -6 -6 -65 -97 -131 -202 -66 -104 -136 -213 -156 -242 l-35
-52 -51 36 c-29 20 -97 70 -152 111 -129 95 -136 100 -225 166 -41 30 -91 67
-110 81 -19 15 -69 51 -110 81 -41 30 -87 63 -101 74 -29 22 -78 58 -119 87
-14 10 -94 69 -178 132 -84 62 -154 112 -156 110 -3 -4 -21 -43 -106 -224 -50
-106 -77 -164 -173 -365 -43 -91 -78 -166 -154 -330 -19 -41 -48 -102 -63
-135 -15 -33 -41 -89 -58 -125 -50 -108 -142 -304 -237 -505 -138 -291 -128
-271 -226 -482 -17 -38 -53 -115 -80 -171 -27 -57 -49 -105 -49 -107 0 -2 -29
-63 -64 -137 -35 -73 -80 -169 -101 -213 -21 -44 -58 -123 -82 -175 -25 -52
-63 -133 -85 -180 -22 -47 -55 -116 -73 -155 -18 -38 -47 -101 -65 -140 -97
-209 -158 -338 -320 -680 -26 -55 -50 -110 -54 -122 l-7 -23 3000 0 c1651 0
3001 3 3001 8 -1 11 -93 456 -185 887 -20 94 -54 253 -75 355 -21 102 -55 259
-74 350 -19 91 -53 253 -76 360 -22 107 -57 269 -76 360 -19 91 -53 251 -75
355 -22 105 -55 262 -74 350 -18 88 -52 248 -75 355 -22 107 -56 269 -76 360
-19 91 -53 251 -75 355 -22 105 -55 262 -74 350 -19 88 -52 246 -74 350 -22
105 -56 267 -76 360 -20 94 -54 256 -76 360 -22 105 -45 216 -52 247 -7 31
-15 59 -19 63 -3 4 -14 -8 -23 -26z m-2534 -3094 c19 -16 53 -43 74 -60 21
-16 64 -51 94 -77 31 -26 59 -48 64 -48 4 0 7 -211 7 -470 0 -259 4 -470 8
-470 5 0 26 26 48 58 21 31 42 59 45 62 4 3 15 19 25 35 27 43 130 188 249
348 l70 94 90 -61 c49 -33 98 -69 109 -78 11 -10 23 -18 28 -18 9 0 -15 -36
-93 -140 -31 -41 -68 -93 -83 -115 -14 -22 -42 -60 -61 -85 -19 -25 -54 -74
-78 -110 -37 -56 -41 -67 -29 -79 7 -8 25 -33 39 -55 14 -23 29 -43 32 -46 8
-6 100 -134 124 -173 10 -16 22 -34 28 -40 5 -7 46 -61 90 -122 l80 -110 -177
-3 c-159 -2 -178 -1 -190 15 -8 10 -49 68 -91 128 -42 61 -81 115 -85 120 -5
6 -35 48 -68 95 -32 47 -66 95 -75 108 -9 12 -20 22 -25 22 -6 0 -10 -96 -10
-245 l0 -245 -155 0 -155 0 0 911 c0 867 1 911 18 898 9 -7 33 -27 53 -44z
m1768 -140 c53 -36 106 -73 119 -83 l23 -18 -66 -100 c-36 -54 -73 -108 -81
-119 -17 -24 -164 -246 -164 -248 0 -1 33 -2 73 -2 120 -1 227 -49 334 -151
246 -235 203 -620 -91 -816 -192 -128 -450 -129 -646 -4 -58 37 -125 102 -152
146 -12 19 -25 37 -28 40 -27 23 -70 184 -70 265 0 116 71 287 200 479 62 92
184 279 335 511 32 50 62 92 65 95 4 3 15 20 25 38 11 17 21 32 24 32 2 0 47
-29 100 -65z"/>
<path d="M3694 1705 c-94 -47 -134 -113 -134 -220 0 -74 15 -119 57 -165 114
-128 349 -89 410 68 24 64 22 155 -5 208 -60 116 -212 167 -328 109z"/>
</g>
</svg>
